<?xml version="1.0" encoding="UTF-8"?>
<svg version="1.1" xmlns="http://www.w3.org/2000/svg" width="32" height="32">
<path d="M0 0 C10.56 0 21.12 0 32 0 C32 10.56 32 21.12 32 32 C21.44 32 10.88 32 0 32 C0 21.44 0 10.88 0 0 Z " fill="#0D0D0D" transform="translate(0,0)"/>
<path d="M0 0 C1.21816406 0.03480469 1.21816406 0.03480469 2.4609375 0.0703125 C3.68683594 0.09738281 3.68683594 0.09738281 4.9375 0.125 C5.87722656 0.15980469 5.87722656 0.15980469 6.8359375 0.1953125 C6.8359375 2.86197917 6.8359375 5.52864583 6.8359375 8.1953125 C7.17625 9.401875 7.17625 9.401875 7.5234375 10.6328125 C7.8359375 13.1953125 7.8359375 13.1953125 6.6484375 14.84375 C4.32483921 16.57643321 3.01259341 16.50734102 0.1484375 16.3828125 C-0.65980469 16.35574219 -1.46804687 16.32867188 -2.30078125 16.30078125 C-2.91566406 16.26597656 -3.53054688 16.23117188 -4.1640625 16.1953125 C-4.7890625 13.8203125 -4.7890625 13.8203125 -5.1640625 11.1953125 C-4.5040625 10.5353125 -3.8440625 9.8753125 -3.1640625 9.1953125 C-3.8240625 8.5353125 -4.4840625 7.8753125 -5.1640625 7.1953125 C-4.78428356 3.39752315 -4.32156606 0.39003304 0 0 Z " fill="#141414" transform="translate(14.1640625,6.8046875)"/>
<path d="M0 0 C1.21816406 0.03480469 1.21816406 0.03480469 2.4609375 0.0703125 C3.68683594 0.09738281 3.68683594 0.09738281 4.9375 0.125 C5.87722656 0.15980469 5.87722656 0.15980469 6.8359375 0.1953125 C6.8359375 2.86197917 6.8359375 5.52864583 6.8359375 8.1953125 C7.17625 9.401875 7.17625 9.401875 7.5234375 10.6328125 C7.8359375 13.1953125 7.8359375 13.1953125 6.6484375 14.84375 C4.32483921 16.57643321 3.01259341 16.50734102 0.1484375 16.3828125 C-0.65980469 16.35574219 -1.46804687 16.32867188 -2.30078125 16.30078125 C-2.91566406 16.26597656 -3.53054688 16.23117188 -4.1640625 16.1953125 C-4.7890625 13.8203125 -4.7890625 13.8203125 -5.1640625 11.1953125 C-4.5040625 10.5353125 -3.8440625 9.8753125 -3.1640625 9.1953125 C-3.8240625 8.5353125 -4.4840625 7.8753125 -5.1640625 7.1953125 C-4.78428356 3.39752315 -4.32156606 0.39003304 0 0 Z M-3.1640625 3.1953125 C-2.93662945 6.15194216 -2.55170312 7.74564938 -0.6015625 10.0078125 C-0.1271875 10.3996875 0.3471875 10.7915625 0.8359375 11.1953125 C-0.4840625 11.1953125 -1.8040625 11.1953125 -3.1640625 11.1953125 C-3.1640625 12.5153125 -3.1640625 13.8353125 -3.1640625 15.1953125 C1.48646622 15.46463771 1.48646622 15.46463771 5.8359375 14.1953125 C6.08624727 11.77911427 6.08624727 11.77911427 5.8359375 9.1953125 C4.8459375 8.5353125 3.8559375 7.8753125 2.8359375 7.1953125 C2.8359375 6.5353125 2.8359375 5.8753125 2.8359375 5.1953125 C3.8259375 4.8653125 4.8159375 4.5353125 5.8359375 4.1953125 C5.8359375 3.2053125 5.8359375 2.2153125 5.8359375 1.1953125 C0.8153546 0.69239869 0.8153546 0.69239869 -3.1640625 3.1953125 Z " fill="#868686" transform="translate(14.1640625,6.8046875)"/>
</svg>
